<svg id="Camada_1" data-name="Camada 1" xmlns="http://www.w3.org/2000/svg" viewBox="0 0 624.31 223.61"><defs><style>.cls-1{fill:#1a4822;}.cls-2{fill:#97b030;}.cls-3{fill:#99b135;}.cls-4{fill:#204520;}.cls-5{fill:#1b4822;}</style></defs><path class="cls-1" d="M314.19,163c-24,15-35,38.61-40.58,64.25-3.1,14.28-3.58,28.75-.39,43.15,3.66,16.51,12.24,28.31,29,34.48l81.22,32.25a22.37,22.37,0,0,1,6,3.47,13.07,13.07,0,0,1,2.48,16.79c-3,5-8.54,6.79-14.87,4.34l-43.22-17-78.12-30.56c.15-47,.09-151,.09-151Z" transform="translate(-255.71 -160.01)"/><path class="cls-1" d="M419.49,382.88c24.06-13.74,36.4-37.62,41.23-63.41,3.71-19.75,2.07-38.88-9-56.3a52.74,52.74,0,0,0-24-20.44L353,210.57c-5.78-2.22-9.89-6.1-11.64-12.15-2.11-7.26,2.09-13.42,9.63-13.37a33.32,33.32,0,0,1,11.62,2.4l114,44.68c-.14,47,0,150.75,0,150.75" transform="translate(-255.71 -160.01)"/><path class="cls-1" d="M365.16,163H476.51v44.6S365.08,163.21,365.16,163Z" transform="translate(-255.71 -160.01)"/><polygon class="cls-1" points="0 222.87 0 179.65 110.26 222.87 0 222.87"/><circle class="cls-2" cx="109.45" cy="112.49" r="47.28"/><path class="cls-2" d="M598.08,220.4c6.2,2.3,12.7,6.61,16.58,12.34s5.46,12,5.46,19.62a37.56,37.56,0,0,1-13.72,29Q593.69,292,572.57,292H503.83V163.09H572c12.29,0,23.47,2.74,31.1,8.78s10.25,14.38,10.25,24.52C613.38,208.7,607.79,214.94,598.08,220.4ZM566.7,193.84H542.92v19H566.7q4.95,0,7.61-2.79a9.5,9.5,0,0,0,2.67-6.83,9,9,0,0,0-2.76-6.83A10.54,10.54,0,0,0,566.7,193.84Zm1.64,67c4.2,0,7.48-1,9.83-3.09s3.53-4.95,3.53-8.67-1.12-6.65-3.34-8.78-5.32-3.19-9.28-3.19H542.92v23.73Z" transform="translate(-255.71 -160.01)"/><path class="cls-2" d="M735.22,275.85Q717.52,294,688.62,294T642,275.85Q624.31,257.67,624.3,227T642,178.19Q659.73,160,688.62,160t46.6,18.18q17.71,18.17,17.71,48.83T735.22,275.85Zm-65-22.55q6.43,9,18.42,9t18.41-9q6.44-9,6.43-26.46,0-17.11-6.43-26.11t-18.41-9q-12,0-18.42,9t-6.43,26.11Q663.77,244.3,670.2,253.3Z" transform="translate(-255.71 -160.01)"/><path class="cls-3" d="M839.85,291.45l-5.7-18.95H793.79l-5.88,18.95H748.62l46.65-128.87H833l46.65,128.87Zm-38.38-45.89h24.81l-7-21.5-5.4-18.7-5.41,18.7Z" transform="translate(-255.71 -160.01)"/><path class="cls-4" d="M538.51,383.62c-10.66,0-19.06-2.94-25.07-7.69s-8-10.77-8.7-19.92l23.16.1c.5,5.83,3.26,10.82,10.61,10.82,6.33,0,10.62-1.31,11.33-6.47.71-4.25-4-6.07-8.52-7.08L528.91,350c-13.95-3.53-21-10.06-21-21.94q0-11.12,7.88-17.66c5.26-4.35,13.45-7.17,24.52-6.53,19.78,1.13,28.06,8.08,28.93,24H547.82c-.2-5.36-3.93-7.46-9.19-7.46s-10.06,2.27-10.06,5.29c0,2.31,1.95,3.89,5.83,4.75l16.2,3.57q21.93,4.86,21.93,24.08c0,8.43-3.15,14.44-9.34,19S549.38,383.62,538.51,383.62Z" transform="translate(-255.71 -160.01)"/><path class="cls-4" d="M629.16,382.25l-3.1-11.19-24.27.09-3.46,10.47-24.18.63,28.94-76.89h22.83l27.78,76.89Zm-21.71-27.42h14.22l-4-12.82-3.09-11.14L611.46,342Z" transform="translate(-255.71 -160.01)"/><path class="cls-4" d="M717.85,325H683v9.7l30.46.05v18L683,352.67l.37,29.58H660V305.36h58.24Z" transform="translate(-255.71 -160.01)"/><path class="cls-5" d="M794.54,363.89a142.33,142.33,0,0,0,2,18.08h-23l-1.82-16.45q-1-10.68-10.69-10.69H748.62v26.89l-23.1.53V305.36h44.06q11.24,0,18.36,6.21a20.53,20.53,0,0,1,7.13,16.25q0,13.6-13.07,18.79c3.6,1.3,7.1,3.34,9,6.11S794,359.21,794.54,363.89ZM763,338.82a9,9,0,0,0,6.23-2,7.52,7.52,0,0,0,.06-10.79,9,9,0,0,0-6.29-2H748.72v14.86Z" transform="translate(-255.71 -160.01)"/><path class="cls-4" d="M855.48,382.81l-3.1-11.19-24.27.08-3.46,10.48-24.18.63,28.95-76.9h22.83L880,382.81Zm-21.71-27.42H848l-4-12.82-3.1-11.14-3.09,11.14Z" transform="translate(-255.71 -160.01)"/></svg>